<?xml version="1.0" encoding="UTF-8" standalone="no"?>
<svg
   xmlns:dc="http://purl.org/dc/elements/1.1/"
   xmlns:cc="http://creativecommons.org/ns#"
   xmlns:rdf="http://www.w3.org/1999/02/22-rdf-syntax-ns#"
   xmlns:svg="http://www.w3.org/2000/svg"
   xmlns="http://www.w3.org/2000/svg"
   xmlns:xlink="http://www.w3.org/1999/xlink"
   xmlns:sodipodi="http://sodipodi.sourceforge.net/DTD/sodipodi-0.dtd"
   xmlns:inkscape="http://www.inkscape.org/namespaces/inkscape"
   width="83.189819mm"
   height="67.719398mm"
   viewBox="0 0 83.189821 67.719398"
   version="1.1"
   id="svg8"
   inkscape:version="1.0.1 (0767f8302a, 2020-10-17)"
   sodipodi:docname="button_direct.svg">
  <defs
     id="defs2">
    <linearGradient
       gradientTransform="matrix(-0.01299404,-0.01966182,0.0193174,-0.0149319,151.65408,290.08242)"
       gradientUnits="userSpaceOnUse"
       y2="2300.2148"
       x2="6069.0566"
       y1="2538.05"
       x1="5466.6807"
       id="linearGradient4148"
       xlink:href="#linearGradient4142"
       inkscape:collect="always" />
    <linearGradient
       id="linearGradient4142"
       inkscape:collect="always">
      <stop
         id="stop4144"
         offset="0"
         style="stop-color:#c3875c;stop-opacity:1" />
      <stop
         style="stop-color:#eccba3;stop-opacity:1"
         offset="0.47961685"
         id="stop4150" />
      <stop
         id="stop4146"
         offset="1"
         style="stop-color:#fce0cb;stop-opacity:1" />
    </linearGradient>
    <marker
       inkscape:stockid="TriangleOutM"
       orient="auto"
       refY="0"
       refX="0"
       id="TriangleOutM"
       style="overflow:visible"
       inkscape:isstock="true">
      <path
         id="path972"
         d="M 5.77,0 -2.88,5 V -5 Z"
         style="fill:#000000;fill-opacity:1;fill-rule:evenodd;stroke:#000000;stroke-width:1pt;stroke-opacity:1"
         transform="scale(0.4)"
         inkscape:connector-curvature="0" />
    </marker>
    <marker
       inkscape:stockid="Arrow1Mend"
       orient="auto"
       refY="0"
       refX="0"
       id="Arrow1Mend"
       style="overflow:visible"
       inkscape:isstock="true">
      <path
         id="path836"
         d="M 0,0 5,-5 -12.5,0 5,5 Z"
         style="fill:#000000;fill-opacity:1;fill-rule:evenodd;stroke:#000000;stroke-width:1pt;stroke-opacity:1"
         transform="matrix(-0.4,0,0,-0.4,-4,0)"
         inkscape:connector-curvature="0" />
    </marker>
    <marker
       inkscape:stockid="Arrow2Mend"
       orient="auto"
       refY="0"
       refX="0"
       id="Arrow2Mend"
       style="overflow:visible"
       inkscape:isstock="true">
      <path
         id="path854"
         style="fill:#000000;fill-opacity:1;fill-rule:evenodd;stroke:#000000;stroke-width:0.625;stroke-linejoin:round;stroke-opacity:1"
         d="M 8.7185878,4.0337352 -2.2072895,0.01601326 8.7185884,-4.0017078 c -1.7454984,2.3720609 -1.7354408,5.6174519 -6e-7,8.035443 z"
         transform="scale(-0.6)"
         inkscape:connector-curvature="0" />
    </marker>
    <marker
       inkscape:stockid="Arrow2Mend"
       orient="auto"
       refY="0"
       refX="0"
       id="Arrow2Mend-3"
       style="overflow:visible"
       inkscape:isstock="true">
      <path
         inkscape:connector-curvature="0"
         id="path854-6"
         style="fill:#000000;fill-opacity:1;fill-rule:evenodd;stroke:#000000;stroke-width:0.625;stroke-linejoin:round;stroke-opacity:1"
         d="M 8.7185878,4.0337352 -2.2072895,0.01601326 8.7185884,-4.0017078 c -1.7454984,2.3720609 -1.7354408,5.6174519 -6e-7,8.035443 z"
         transform="scale(-0.6)" />
    </marker>
    <marker
       inkscape:stockid="Arrow1Mend"
       orient="auto"
       refY="0"
       refX="0"
       id="Arrow1Mend-5"
       style="overflow:visible"
       inkscape:isstock="true">
      <path
         inkscape:connector-curvature="0"
         id="path836-3"
         d="M 0,0 5,-5 -12.5,0 5,5 Z"
         style="fill:#000000;fill-opacity:1;fill-rule:evenodd;stroke:#000000;stroke-width:1pt;stroke-opacity:1"
         transform="matrix(-0.4,0,0,-0.4,-4,0)" />
    </marker>
    <marker
       inkscape:isstock="true"
       style="overflow:visible"
       id="TriangleOutM-7"
       refX="0"
       refY="0"
       orient="auto"
       inkscape:stockid="TriangleOutM">
      <path
         inkscape:connector-curvature="0"
         transform="scale(0.4)"
         style="fill:#000000;fill-opacity:1;fill-rule:evenodd;stroke:#000000;stroke-width:1pt;stroke-opacity:1"
         d="M 5.77,0 -2.88,5 V -5 Z"
         id="path972-5" />
    </marker>
    <marker
       inkscape:isstock="true"
       style="overflow:visible"
       id="Arrow1Mend-3"
       refX="0"
       refY="0"
       orient="auto"
       inkscape:stockid="Arrow1Mend">
      <path
         inkscape:connector-curvature="0"
         transform="matrix(-0.4,0,0,-0.4,-4,0)"
         style="fill:#000000;fill-opacity:1;fill-rule:evenodd;stroke:#000000;stroke-width:1pt;stroke-opacity:1"
         d="M 0,0 5,-5 -12.5,0 5,5 Z"
         id="path836-5" />
    </marker>
    <marker
       inkscape:isstock="true"
       style="overflow:visible"
       id="Arrow2Mend-6"
       refX="0"
       refY="0"
       orient="auto"
       inkscape:stockid="Arrow2Mend">
      <path
         inkscape:connector-curvature="0"
         transform="scale(-0.6)"
         d="M 8.7185878,4.0337352 -2.2072895,0.01601326 8.7185884,-4.0017078 c -1.7454984,2.3720609 -1.7354408,5.6174519 -6e-7,8.035443 z"
         style="fill:#000000;fill-opacity:1;fill-rule:evenodd;stroke:#000000;stroke-width:0.625;stroke-linejoin:round;stroke-opacity:1"
         id="path854-2" />
    </marker>
    <marker
       inkscape:isstock="true"
       style="overflow:visible"
       id="Arrow2Mend-3-9"
       refX="0"
       refY="0"
       orient="auto"
       inkscape:stockid="Arrow2Mend">
      <path
         transform="scale(-0.6)"
         d="M 8.7185878,4.0337352 -2.2072895,0.01601326 8.7185884,-4.0017078 c -1.7454984,2.3720609 -1.7354408,5.6174519 -6e-7,8.035443 z"
         style="fill:#000000;fill-opacity:1;fill-rule:evenodd;stroke:#000000;stroke-width:0.625;stroke-linejoin:round;stroke-opacity:1"
         id="path854-6-1"
         inkscape:connector-curvature="0" />
    </marker>
    <marker
       inkscape:isstock="true"
       style="overflow:visible"
       id="Arrow1Mend-5-2"
       refX="0"
       refY="0"
       orient="auto"
       inkscape:stockid="Arrow1Mend">
      <path
         transform="matrix(-0.4,0,0,-0.4,-4,0)"
         style="fill:#000000;fill-opacity:1;fill-rule:evenodd;stroke:#000000;stroke-width:1pt;stroke-opacity:1"
         d="M 0,0 5,-5 -12.5,0 5,5 Z"
         id="path836-3-7"
         inkscape:connector-curvature="0" />
    </marker>
    <marker
       inkscape:stockid="TriangleOutM"
       orient="auto"
       refY="0"
       refX="0"
       id="TriangleOutM-2"
       style="overflow:visible"
       inkscape:isstock="true">
      <path
         id="path972-9"
         d="M 5.77,0 -2.88,5 V -5 Z"
         style="fill:#000000;fill-opacity:1;fill-rule:evenodd;stroke:#000000;stroke-width:1pt;stroke-opacity:1"
         transform="scale(0.4)"
         inkscape:connector-curvature="0" />
    </marker>
    <marker
       inkscape:stockid="Arrow1Mend"
       orient="auto"
       refY="0"
       refX="0"
       id="Arrow1Mend-31"
       style="overflow:visible"
       inkscape:isstock="true">
      <path
         id="path836-9"
         d="M 0,0 5,-5 -12.5,0 5,5 Z"
         style="fill:#000000;fill-opacity:1;fill-rule:evenodd;stroke:#000000;stroke-width:1pt;stroke-opacity:1"
         transform="matrix(-0.4,0,0,-0.4,-4,0)"
         inkscape:connector-curvature="0" />
    </marker>
    <marker
       inkscape:stockid="Arrow2Mend"
       orient="auto"
       refY="0"
       refX="0"
       id="Arrow2Mend-4"
       style="overflow:visible"
       inkscape:isstock="true">
      <path
         id="path854-7"
         style="fill:#000000;fill-opacity:1;fill-rule:evenodd;stroke:#000000;stroke-width:0.625;stroke-linejoin:round;stroke-opacity:1"
         d="M 8.7185878,4.0337352 -2.2072895,0.01601326 8.7185884,-4.0017078 c -1.7454984,2.3720609 -1.7354408,5.6174519 -6e-7,8.035443 z"
         transform="scale(-0.6)"
         inkscape:connector-curvature="0" />
    </marker>
    <marker
       inkscape:stockid="Arrow2Mend"
       orient="auto"
       refY="0"
       refX="0"
       id="Arrow2Mend-3-8"
       style="overflow:visible"
       inkscape:isstock="true">
      <path
         inkscape:connector-curvature="0"
         id="path854-6-4"
         style="fill:#000000;fill-opacity:1;fill-rule:evenodd;stroke:#000000;stroke-width:0.625;stroke-linejoin:round;stroke-opacity:1"
         d="M 8.7185878,4.0337352 -2.2072895,0.01601326 8.7185884,-4.0017078 c -1.7454984,2.3720609 -1.7354408,5.6174519 -6e-7,8.035443 z"
         transform="scale(-0.6)" />
    </marker>
    <marker
       inkscape:stockid="Arrow1Mend"
       orient="auto"
       refY="0"
       refX="0"
       id="Arrow1Mend-5-5"
       style="overflow:visible"
       inkscape:isstock="true">
      <path
         inkscape:connector-curvature="0"
         id="path836-3-0"
         d="M 0,0 5,-5 -12.5,0 5,5 Z"
         style="fill:#000000;fill-opacity:1;fill-rule:evenodd;stroke:#000000;stroke-width:1pt;stroke-opacity:1"
         transform="matrix(-0.4,0,0,-0.4,-4,0)" />
    </marker>
    <marker
       inkscape:isstock="true"
       style="overflow:visible"
       id="TriangleOutM-7-3"
       refX="0"
       refY="0"
       orient="auto"
       inkscape:stockid="TriangleOutM">
      <path
         inkscape:connector-curvature="0"
         transform="scale(0.4)"
         style="fill:#000000;fill-opacity:1;fill-rule:evenodd;stroke:#000000;stroke-width:1pt;stroke-opacity:1"
         d="M 5.77,0 -2.88,5 V -5 Z"
         id="path972-5-6" />
    </marker>
    <marker
       inkscape:isstock="true"
       style="overflow:visible"
       id="Arrow1Mend-3-1"
       refX="0"
       refY="0"
       orient="auto"
       inkscape:stockid="Arrow1Mend">
      <path
         inkscape:connector-curvature="0"
         transform="matrix(-0.4,0,0,-0.4,-4,0)"
         style="fill:#000000;fill-opacity:1;fill-rule:evenodd;stroke:#000000;stroke-width:1pt;stroke-opacity:1"
         d="M 0,0 5,-5 -12.5,0 5,5 Z"
         id="path836-5-0" />
    </marker>
    <marker
       inkscape:isstock="true"
       style="overflow:visible"
       id="Arrow2Mend-6-6"
       refX="0"
       refY="0"
       orient="auto"
       inkscape:stockid="Arrow2Mend">
      <path
         inkscape:connector-curvature="0"
         transform="scale(-0.6)"
         d="M 8.7185878,4.0337352 -2.2072895,0.01601326 8.7185884,-4.0017078 c -1.7454984,2.3720609 -1.7354408,5.6174519 -6e-7,8.035443 z"
         style="fill:#000000;fill-opacity:1;fill-rule:evenodd;stroke:#000000;stroke-width:0.625;stroke-linejoin:round;stroke-opacity:1"
         id="path854-2-3" />
    </marker>
    <marker
       inkscape:isstock="true"
       style="overflow:visible"
       id="Arrow2Mend-3-9-2"
       refX="0"
       refY="0"
       orient="auto"
       inkscape:stockid="Arrow2Mend">
      <path
         transform="scale(-0.6)"
         d="M 8.7185878,4.0337352 -2.2072895,0.01601326 8.7185884,-4.0017078 c -1.7454984,2.3720609 -1.7354408,5.6174519 -6e-7,8.035443 z"
         style="fill:#000000;fill-opacity:1;fill-rule:evenodd;stroke:#000000;stroke-width:0.625;stroke-linejoin:round;stroke-opacity:1"
         id="path854-6-1-0"
         inkscape:connector-curvature="0" />
    </marker>
    <marker
       inkscape:isstock="true"
       style="overflow:visible"
       id="Arrow1Mend-5-2-6"
       refX="0"
       refY="0"
       orient="auto"
       inkscape:stockid="Arrow1Mend">
      <path
         transform="matrix(-0.4,0,0,-0.4,-4,0)"
         style="fill:#000000;fill-opacity:1;fill-rule:evenodd;stroke:#000000;stroke-width:1pt;stroke-opacity:1"
         d="M 0,0 5,-5 -12.5,0 5,5 Z"
         id="path836-3-7-1"
         inkscape:connector-curvature="0" />
    </marker>
  </defs>
  <sodipodi:namedview
     id="base"
     pagecolor="#ffffff"
     bordercolor="#666666"
     borderopacity="1.0"
     inkscape:pageopacity="0.0"
     inkscape:pageshadow="2"
     inkscape:zoom="1.4"
     inkscape:cx="189.65998"
     inkscape:cy="217.44818"
     inkscape:document-units="mm"
     inkscape:current-layer="layer1"
     showgrid="false"
     inkscape:window-width="1858"
     inkscape:window-height="1016"
     inkscape:window-x="62"
     inkscape:window-y="27"
     inkscape:window-maximized="1"
     inkscape:snap-global="true"
     fit-margin-top="0"
     fit-margin-left="0"
     fit-margin-right="0"
     fit-margin-bottom="0"
     inkscape:document-rotation="0"
     showguides="true"
     inkscape:guide-bbox="true" />
  <metadata
     id="metadata5">
    <rdf:RDF>
      <cc:Work
         rdf:about="">
        <dc:format>image/svg+xml</dc:format>
        <dc:type
           rdf:resource="http://purl.org/dc/dcmitype/StillImage" />
        <dc:title />
      </cc:Work>
    </rdf:RDF>
  </metadata>
  <g
     inkscape:label="Layer 1"
     inkscape:groupmode="layer"
     id="layer1"
     transform="translate(-67.32384,-115.23294)">
    <g
       id="g904"
       transform="translate(234.96827,-19.654762)">
      <path
         inkscape:export-filename="/home/obijuan/develop/digital-electronics-with-open-FPGAs-tutorial/wiki/Tutorial-09/src/temp/anim/Button-off.png"
         inkscape:export-ydpi="90"
         inkscape:export-xdpi="90"
         inkscape:connector-curvature="0"
         id="path4192-6"
         d="m -117.19042,184.27813 a 20.690073,9.0937903 0 0 0 -13.73338,2.30728 l -5.43375,0.006 -1.28492,5.48157 a 20.690073,9.0937903 0 0 0 -0.23799,1.2993 20.690073,9.0937903 0 0 0 20.69004,9.09371 20.690073,9.0937903 0 0 0 20.690241,-9.09371 20.690073,9.0937903 0 0 0 -0.0284,-0.35137 l 0.0638,7.1e-4 -1.277581,-6.47145 -5.77809,0.006 a 20.690073,9.0937903 0 0 0 -13.66996,-2.27804 z"
         style="display:inline;opacity:1;fill:#333333;fill-opacity:1;stroke:#000000;stroke-width:0.282222;stroke-linecap:round;stroke-linejoin:round;stroke-miterlimit:4;stroke-dasharray:none;stroke-dashoffset:0;stroke-opacity:1" />
      <ellipse
         inkscape:export-filename="/home/obijuan/develop/digital-electronics-with-open-FPGAs-tutorial/wiki/Tutorial-09/src/temp/anim/Button-off.png"
         inkscape:export-ydpi="90"
         inkscape:export-xdpi="90"
         ry="6.7620497"
         rx="19.407871"
         cy="187.34097"
         cx="-117.07378"
         id="path4192"
         style="display:inline;opacity:1;fill:#666666;fill-opacity:1;stroke:#000000;stroke-width:0.282222;stroke-linecap:round;stroke-linejoin:round;stroke-miterlimit:4;stroke-dasharray:none;stroke-dashoffset:0;stroke-opacity:1" />
      <g
         inkscape:export-filename="/home/obijuan/develop/digital-electronics-with-open-FPGAs-tutorial/wiki/Tutorial-09/src/temp/anim/Button-off.png"
         inkscape:export-ydpi="90"
         inkscape:export-xdpi="90"
         transform="matrix(0.10179206,0,0,0.10181238,-158.55951,146.07913)"
         inkscape:label="Layer 2"
         id="layer2-2"
         style="display:inline;stroke-width:2.77226">
        <g
           transform="translate(0.31156048,-5.3326452)"
           id="g4187"
           style="stroke-width:2.77226">
          <ellipse
             style="opacity:1;fill:#008000;fill-opacity:1;stroke:#000000;stroke-width:2.77226;stroke-linecap:round;stroke-linejoin:round;stroke-miterlimit:4;stroke-dasharray:none;stroke-dashoffset:0;stroke-opacity:1"
             id="path4170-3-7"
             cx="406.08701"
             cy="399.21625"
             rx="184.22064"
             ry="72.858047" />
          <ellipse
             style="opacity:1;fill:#00ff00;fill-opacity:1;stroke:#000000;stroke-width:2.77226;stroke-linecap:round;stroke-linejoin:round;stroke-miterlimit:4;stroke-dasharray:none;stroke-dashoffset:0;stroke-opacity:1"
             id="path4170-0"
             cx="406.23013"
             cy="383.32779"
             rx="179.49704"
             ry="60.977467" />
        </g>
      </g>
    </g>
    <g
       id="g1020"
       transform="translate(6.6706546)">
      <g
         id="g981">
        <path
           sodipodi:nodetypes="cccccccccccccccc"
           inkscape:connector-curvature="0"
           id="path3338"
           d="m 126.16067,115.38711 c -1.52338,1.51389 -2.14039,3.3069 -2.02374,5.32583 -0.50685,1.09707 -2.4109,2.34584 -2.02665,3.26683 -1.19649,1.92371 -1.6238,3.38923 -1.57181,4.56926 -0.54468,1.23936 -0.40343,1.7047 -0.34889,2.26804 -2.2657,3.4969 -4.09142,8.2545 -5.87792,13.12449 -2.30176,2.76536 -3.63916,5.7923 -4.89794,8.84056 -2.19098,3.7003 -3.75532,7.66981 -4.01902,11.39373 l -0.26617,0.55839 c 2.99614,3.107 4.94624,1.52332 7.01831,0.74627 6.63698,-3.11177 9.5037,-8.51998 12.21254,-14.02437 0.47261,-1.57181 1.57011,-3.12686 3.15082,-4.66892 4.41427,-4.7853 6.88557,-10.02183 9.85692,-15.14224 0.22837,-0.42844 0.57921,-1.03246 1.14248,-1.94104 1.67496,-1.79454 3.41809,-4.99706 5.13275,-7.61149 z"
           style="fill:url(#linearGradient4148);fill-opacity:1;fill-rule:evenodd;stroke:#000000;stroke-width:0.264583px;stroke-linecap:butt;stroke-linejoin:miter;stroke-opacity:1" />
      </g>
      <path
         style="fill:#f8ecf8;fill-opacity:1;fill-rule:evenodd;stroke:#000000;stroke-width:0.264583px;stroke-linecap:butt;stroke-linejoin:miter;stroke-opacity:1"
         d="m 108.76195,154.14435 c -2.36188,2.82307 -3.50605,6.29719 -4.22813,10.20357 0.51781,0.12911 1.30265,-0.44447 2.15489,-1.19549 2.57527,-6.0679 1.84829,-7.14281 2.07324,-9.00808 z"
         id="path3340"
         inkscape:connector-curvature="0"
         sodipodi:nodetypes="cccc" />
      <path
         style="fill:none;fill-rule:evenodd;stroke:#000000;stroke-width:0.264583px;stroke-linecap:butt;stroke-linejoin:miter;stroke-opacity:1"
         d="m 124.06572,120.89898 c 2.09364,-0.057 3.85338,0.53081 5.37343,1.58168"
         id="path4207"
         inkscape:connector-curvature="0"
         sodipodi:nodetypes="cc" />
      <path
         style="fill:none;fill-rule:evenodd;stroke:#000000;stroke-width:0.264583px;stroke-linecap:butt;stroke-linejoin:miter;stroke-opacity:1"
         d="m 122.10802,123.99151 c 2.00116,0.28671 3.9463,0.66384 5.42844,1.7885"
         id="path4209"
         inkscape:connector-curvature="0"
         sodipodi:nodetypes="cc" />
      <path
         style="fill:none;fill-rule:evenodd;stroke:#000000;stroke-width:0.264583px;stroke-linecap:butt;stroke-linejoin:miter;stroke-opacity:1"
         d="m 120.60721,128.39323 c 1.32501,-0.48065 3.01987,0.0985 4.82903,1.00505"
         id="path4211"
         inkscape:connector-curvature="0"
         sodipodi:nodetypes="cc" />
      <path
         style="fill:none;fill-rule:evenodd;stroke:#000000;stroke-width:0.264583px;stroke-linecap:butt;stroke-linejoin:miter;stroke-opacity:1"
         d="m 120.25529,130.82635 1.79049,0.36153"
         id="path4213"
         inkscape:connector-curvature="0" />
    </g>
    <path
       class="st0"
       d="m 93.260755,127.81461 v 11.88894 h -5.20873 v -11.88894 h 5.20873 m 0.96458,-1.00753 h -7.13789 v 13.904 h 7.13789 z"
       id="path1012"
       style="stroke-width:0.985824" />
    <path
       d="m 88.962278,132.70744 v 10.94009 H 77.632414 v -3.47509 c 0,-0.25741 -0.123222,-0.51482 -0.369659,-0.51482 l -2.834048,-1.5445 6.900291,-3.73249 c 0.246439,-0.12871 0.369659,-0.38612 0.369659,-0.64354 0,-0.25741 -0.123222,-0.51483 -0.369659,-0.51483 l -7.02351,-3.47508 2.957267,-2.05931 c 0.123222,-0.12872 0.246439,-0.25742 0.246439,-0.51484 v -3.47509 h 3.819804 l -4.312682,-7.85112 -4.312682,7.85112 h 3.696584 v 3.21769 l -3.573365,2.57413 c -0.123222,0.12871 -0.246439,0.38612 -0.246439,0.64354 0,0.25741 0.123222,0.38612 0.369659,0.51482 l 6.900291,3.34639 -6.900291,3.7325 c -0.246439,0.12871 -0.369659,0.38611 -0.369659,0.51483 0,0.1287 0.123222,0.51482 0.369659,0.51482 l 3.573365,1.93061 v 3.08897 H 67.32384 v 1.54448 h 21.638438 v 10.9401 l 18.961662,-10.9401 h 9.16025 l 0.0141,-1.40642 -9.16227,0 z m -11.945962,-15.05872 2.710828,5.01957 h -5.544876 z m 13.547811,35.65184 v -17.76157 l 15.155983,8.88078 z"
       id="path1014"
       style="stroke-width:1.25933"
       sodipodi:nodetypes="cccscccscccscccccccscccscccccccccccccccccccc" />
    <path
       style="fill:#ffffff;stroke:#000000;stroke-width:0.33799px;stroke-linecap:butt;stroke-linejoin:miter;stroke-opacity:1"
       d="m 89.944982,134.24854 v 19.94821 l 17.081968,-9.7107 z"
       id="path1016"
       sodipodi:nodetypes="cccc" />
  </g>
  <style
     id="style1010">.st0{display:none}.st1{fill:none;stroke:#000;stroke-width:.75;stroke-linejoin:round;stroke-miterlimit:10}.st2{fill:#010002}</style>
</svg>
